<svg version="1.1" id="Layer_1" xmlns="http://www.w3.org/2000/svg" x="0" y="0" width="512" height="512" style="enable-background:new 0 0 512 512" xml:space="preserve"><circle id="background_63_" style="fill:#e05b49" cx="256" cy="256" r="256"/><path style="fill:#233540" d="M328.795 399H192.064l10.518-10h115.696z"/><path style="fill:#3b5666" d="M328.202 401H192.52l-.456-2h136.731z"/><path style="fill:#233540" d="M253 314h15v85h-15z"/><linearGradient id="SVGID_1_" gradientUnits="userSpaceOnUse" x1="260.5" y1="388.808" x2="260.5" y2="369.601"><stop offset="0" style="stop-color:#fff;stop-opacity:0"/><stop offset="1" style="stop-color:#000"/></linearGradient><path style="fill:url(#SVGID_1_)" d="M253 363h15v22h-15z"/><path style="fill:#4d7085" d="M451 366.894a8.106 8.106 0 0 1-8.106 8.106H70.106A8.106 8.106 0 0 1 62 366.894V154.107A8.107 8.107 0 0 1 70.106 146h372.787a8.107 8.107 0 0 1 8.106 8.107v212.787z"/><path style="fill:#233540" d="M445 363.894a8.105 8.105 0 0 1-8.106 8.106H71.106A8.106 8.106 0 0 1 63 363.894V158.106A8.106 8.106 0 0 1 71.106 150h365.787a8.106 8.106 0 0 1 8.106 8.106v205.788z"/><path style="fill:#233540" d="M443 358.894a8.106 8.106 0 0 1-8.106 8.106H77.106A8.106 8.106 0 0 1 69 358.894V163.107A8.107 8.107 0 0 1 77.106 155h357.787a8.107 8.107 0 0 1 8.106 8.107v195.787z"/><path style="fill:#141e24" d="M434 349.894a8.106 8.106 0 0 1-8.107 8.106H85.107A8.107 8.107 0 0 1 77 349.894V170.106A8.107 8.107 0 0 1 85.107 162h340.785a8.107 8.107 0 0 1 8.107 8.106v179.788z"/><path style="fill:#3b5666" d="M431 345.894a8.106 8.106 0 0 1-8.106 8.106H89.106A8.106 8.106 0 0 1 81 345.894V173.107A8.107 8.107 0 0 1 89.106 165h333.787a8.107 8.107 0 0 1 8.106 8.107v172.787z"/><path style="fill:#4e7287" d="m240.819 354 105.829-189h-98.833L141.987 354zM299.704 354l105.953-189h-35.879L263.95 354z"/></svg>