<svg aria-hidden="true" style="width:0;height:0;position:absolute;overflow:hidden" xmlns="http://www.w3.org/2000/svg"><defs><symbol id="comment-to-us" viewBox="0 0 32 32"><path fill="#F6522E" style="fill:var(--color1,#f6522e)" d="M16 0h.002c8.837 0 16 7.163 16 16s-7.163 16-16 16-16-7.163-16-16A15.95 15.95 0 0 1 4.687 4.687 15.912 15.912 0 0 1 15.986-.001H16h-.001zm-3.292 14.701c.519.96 1.117 1.787 1.806 2.528l-.007-.007a10.248 10.248 0 0 0 2.791 2.077l.058.027a.295.295 0 0 0 .247.012l-.002.001c.136-.064.25-.152.343-.259l.001-.001c.108-.116.21-.24.305-.371l.008-.011c.456-.602 1.026-1.349 1.823-.977l.047.026 2.698 1.552c.307.223.504.58.504.983 0 .021 0 .041-.002.061v-.003c-.02.492-.163.946-.398 1.338l.007-.013a2.727 2.727 0 0 1-1.266 1.126l-.018.007a5.63 5.63 0 0 1-1.554.429l-.029.003a5.361 5.361 0 0 1-2.457-.214l.038.011a10.544 10.544 0 0 1-2.472-1.199l.039.024-.063-.039a21.25 21.25 0 0 1-1.242-.823 15.664 15.664 0 0 1-4.07-4.585l-.04-.074c-.854-1.544-1.32-3.211-1.065-4.802A3.433 3.433 0 0 1 9.89 9.347l.004-.003a3.103 3.103 0 0 1 2.36-.617l-.017-.002a.334.334 0 0 1 .26.17l.001.002 1.711 2.893a.905.905 0 0 1 .141.977l.002-.006a1.92 1.92 0 0 1-.649.725l-.007.004c-.091.081-.201.159-.315.242-.383.279-.818.599-.669.977zm13.058-8.467a13.758 13.758 0 0 0-9.755-4.038c-7.623 0-13.802 6.179-13.802 13.802S8.388 29.8 16.011 29.8c7.622 0 13.801-6.178 13.802-13.8v-.017a13.72 13.72 0 0 0-4.047-9.748z"/></symbol><symbol id="phone" viewBox="0 0 32 32"><path style="fill:var(--color2,#000)" d="M32 16c0 8.837-7.163 16-16 16S0 24.837 0 16 7.163 0 16 0s16 7.163 16 16z"/><path fill="#fff" style="fill:var(--color3,#fff)" d="M18.494 19.988a.94.94 0 0 1-.888.065c-.571-.317-1.613-1.073-3.058-2.518s-2.268-2.556-2.587-3.12a.94.94 0 0 1 .065-.888l.83-1.454c.298-.516.365-.842.041-1.344l-2.134-3.266c-.607-.96-.917-.917-1.44-.677-2.722 1.238-3.785 2.99.077 9.089 1.042 1.644 4.224 5.124 6.938 6.886 5.813 3.775 7.726 2.64 8.861 0 .24-.533.346-.842-.569-1.44l-3.302-2.1c-.502-.322-.746-.406-1.265-.106l-1.57.874z"/></symbol><symbol id="rate3-icon" viewBox="0 0 32 32"><path fill="#f3b81a" style="fill:var(--color4,#f3b81a)" d="M29.388 16a13.295 13.295 0 0 1-3.921 9.467c-2.528 2.529-5.891 3.921-9.467 3.921s-6.939-1.392-9.467-3.921A13.293 13.293 0 0 1 2.612 16c0-3.576 1.392-6.938 3.921-9.467S12.424 2.612 16 2.612s6.939 1.392 9.467 3.921A13.3 13.3 0 0 1 29.388 16z"/><path fill="#5e2b16" style="fill:var(--color5,#5e2b16)" d="M25.467 6.533C22.939 4.004 19.576 2.612 16 2.612S9.061 4.004 6.533 6.533a13.3 13.3 0 0 0-3.916 9.821 13.295 13.295 0 0 0 3.916 9.113c2.528 2.529 5.891 3.921 9.467 3.921s6.939-1.392 9.467-3.921A13.293 13.293 0 0 0 29.388 16a13.3 13.3 0 0 0-3.921-9.467zM16 28.763c-5.913 0-10.899-4.041-12.342-9.507A12.714 12.714 0 0 1 3.237 16C3.237 8.963 8.963 3.237 16 3.237S28.763 8.963 28.763 16c0 1.125-.146 2.217-.421 3.256-1.443 5.466-6.429 9.507-12.342 9.507z"/><path fill="#5e2b16" style="fill:var(--color5,#5e2b16)" d="M11.909 11.237c-1.099 0-1.994.895-1.994 1.994s.894 1.994 1.994 1.994 1.994-.894 1.994-1.994-.894-1.994-1.994-1.994zm0 3.363c-.755 0-1.369-.614-1.369-1.369s.614-1.369 1.369-1.369 1.369.614 1.369 1.369c0 .754-.614 1.369-1.369 1.369zm8.182-3.363c-1.099 0-1.994.895-1.994 1.994s.894 1.994 1.994 1.994c1.099 0 1.994-.894 1.994-1.994s-.894-1.994-1.994-1.994zm0 3.363c-.754 0-1.369-.614-1.369-1.369s.614-1.369 1.369-1.369 1.369.614 1.369 1.369-.614 1.369-1.369 1.369zM16 24.041c-2.547 0-4.908-1.192-6.162-3.11l.523-.342c1.139 1.744 3.3 2.827 5.638 2.827s4.499-1.083 5.638-2.827l.523.342c-1.254 1.918-3.614 3.11-6.162 3.11z"/></symbol><symbol id="rate2-icon" viewBox="0 0 32 32"><path fill="#f3b81a" style="fill:var(--color4,#f3b81a)" d="M29.388 16a13.295 13.295 0 0 1-3.921 9.467c-2.528 2.529-5.891 3.921-9.467 3.921s-6.939-1.393-9.467-3.921A13.295 13.295 0 0 1 2.612 16c0-3.576 1.392-6.938 3.921-9.467S12.424 2.612 16 2.612s6.939 1.392 9.467 3.921A13.3 13.3 0 0 1 29.388 16z"/><path fill="#5e2b16" style="fill:var(--color5,#5e2b16)" d="M25.467 6.533C22.939 4.004 19.576 2.612 16 2.612S9.061 4.004 6.533 6.533a13.3 13.3 0 0 0-3.916 9.821 13.295 13.295 0 0 0 3.916 9.113c2.528 2.529 5.891 3.921 9.467 3.921s6.939-1.393 9.467-3.921A13.293 13.293 0 0 0 29.388 16a13.3 13.3 0 0 0-3.921-9.467zM16 28.763c-5.913 0-10.899-4.041-12.342-9.507A12.72 12.72 0 0 1 3.237 16C3.237 8.963 8.963 3.237 16 3.237S28.763 8.963 28.763 16c0 1.125-.146 2.217-.421 3.256-1.443 5.465-6.429 9.507-12.342 9.507z"/><path fill="#5e2b16" style="fill:var(--color5,#5e2b16)" d="M16 24.041c-2.547 0-4.908-1.192-6.162-3.11l.523-.342c1.139 1.744 3.3 2.827 5.638 2.827s4.499-1.083 5.638-2.827l.523.342c-1.254 1.918-3.614 3.11-6.162 3.11z"/><path fill="#5e2c17" style="fill:var(--color6,#5e2c17)" d="M20.09 13.231a1.98 1.98 0 0 1 1.977 1.977h-.625c0-.746-.607-1.352-1.352-1.352s-1.352.607-1.352 1.352h-.625a1.98 1.98 0 0 1 1.977-1.977zM11.909 13.231a1.98 1.98 0 0 1 1.977 1.977h-.625c0-.746-.607-1.352-1.352-1.352s-1.352.607-1.352 1.352h-.625a1.98 1.98 0 0 1 1.977-1.977z"/></symbol><symbol id="rate4-icon" viewBox="0 0 32 32"><path fill="#f3b81a" style="fill:var(--color4,#f3b81a)" d="M29.388 16a13.295 13.295 0 0 1-3.921 9.467c-2.528 2.529-5.891 3.921-9.467 3.921s-6.939-1.392-9.467-3.921A13.293 13.293 0 0 1 2.612 16c0-3.576 1.392-6.938 3.921-9.467S12.424 2.612 16 2.612s6.939 1.392 9.467 3.921A13.3 13.3 0 0 1 29.388 16z"/><path fill="#5e2b16" style="fill:var(--color5,#5e2b16)" d="M25.467 6.533C22.939 4.004 19.576 2.612 16 2.612S9.061 4.004 6.533 6.533a13.3 13.3 0 0 0-3.916 9.821 13.295 13.295 0 0 0 3.916 9.113c2.528 2.529 5.891 3.921 9.467 3.921s6.939-1.392 9.467-3.921A13.289 13.289 0 0 0 29.388 16c0-3.576-1.393-6.938-3.921-9.467zM16 28.763c-5.913 0-10.899-4.041-12.342-9.507A12.714 12.714 0 0 1 3.237 16C3.237 8.963 8.963 3.237 16 3.237S28.763 8.963 28.763 16c0 1.125-.146 2.217-.421 3.256-1.443 5.466-6.429 9.507-12.342 9.507z"/><path fill="#5e2b16" style="fill:var(--color5,#5e2b16)" d="M11.909 11.237c-1.099 0-1.994.895-1.994 1.994s.894 1.994 1.994 1.994 1.994-.894 1.994-1.994-.894-1.994-1.994-1.994zm0 3.363c-.755 0-1.369-.614-1.369-1.369s.614-1.369 1.369-1.369 1.369.614 1.369 1.369c0 .754-.614 1.369-1.369 1.369zm8.182-3.363c-1.099 0-1.994.895-1.994 1.994s.894 1.994 1.994 1.994 1.994-.894 1.994-1.994a1.996 1.996 0 0 0-1.994-1.994zm0 3.363c-.754 0-1.369-.614-1.369-1.369s.614-1.369 1.369-1.369 1.369.614 1.369 1.369-.614 1.369-1.369 1.369zM16.098 26.209c-3.968 0-7.196-3.228-7.196-7.196V18.7h14.391v.313c0 3.968-3.228 7.196-7.196 7.196zm-6.564-6.883c.164 3.478 3.045 6.258 6.563 6.258s6.4-2.78 6.563-6.258H9.533z"/></symbol><symbol id="rate5-icon" viewBox="0 0 32 32"><path fill="#f3b81a" style="fill:var(--color4,#f3b81a)" d="M29.388 16a13.295 13.295 0 0 1-3.921 9.467c-2.528 2.529-5.891 3.921-9.467 3.921s-6.939-1.392-9.467-3.921A13.295 13.295 0 0 1 2.612 16c0-3.576 1.392-6.938 3.921-9.467S12.424 2.612 16 2.612s6.939 1.392 9.467 3.921A13.3 13.3 0 0 1 29.388 16z"/><path fill="#5e2b16" style="fill:var(--color5,#5e2b16)" d="M25.467 6.533C22.939 4.004 19.576 2.612 16 2.612S9.061 4.004 6.533 6.533a13.3 13.3 0 0 0-3.916 9.821 13.295 13.295 0 0 0 3.916 9.113c2.528 2.529 5.891 3.921 9.467 3.921s6.939-1.392 9.467-3.921A13.293 13.293 0 0 0 29.388 16a13.3 13.3 0 0 0-3.921-9.467zM16 28.763c-5.913 0-10.899-4.041-12.342-9.507A12.72 12.72 0 0 1 3.237 16C3.237 8.963 8.963 3.237 16 3.237S28.763 8.963 28.763 16c0 1.125-.146 2.217-.421 3.256-1.443 5.465-6.429 9.507-12.342 9.507z"/><path fill="#5e2b16" style="fill:var(--color5,#5e2b16)" d="M16 24.041c-2.547 0-4.908-1.192-6.162-3.11l.523-.342c1.139 1.744 3.3 2.827 5.638 2.827s4.499-1.083 5.638-2.827l.523.342c-1.254 1.918-3.614 3.11-6.162 3.11zM13.592 15.464l-1.683-.885-1.683.885.321-1.874-1.361-1.327 1.881-.273.841-1.705.841 1.705 1.881.273-1.361 1.327.321 1.874zm-1.683-1.591.853.448-.163-.95.69-.672-.953-.139-.426-.864-.426.864-.953.139.69.672-.163.95.852-.448zm6.499 1.591.322-1.874-1.361-1.327 1.881-.273.841-1.705.841 1.705 1.881.273-1.361 1.327.322 1.874-1.683-.885-1.683.885zm1.682-1.591.853.448-.163-.95.69-.672-.953-.139-.426-.864-.426.864-.953.139.69.672-.163.95.852-.448z"/></symbol><symbol id="rate1-icon" viewBox="0 0 32 32"><path fill="#f3b81a" style="fill:var(--color4,#f3b81a)" d="M29.388 16a13.295 13.295 0 0 1-3.921 9.467c-2.528 2.529-5.891 3.921-9.467 3.921s-6.939-1.392-9.467-3.921A13.293 13.293 0 0 1 2.612 16c0-3.576 1.392-6.938 3.921-9.467S12.424 2.612 16 2.612s6.939 1.392 9.467 3.921A13.3 13.3 0 0 1 29.388 16z"/><path fill="#5e2b16" style="fill:var(--color5,#5e2b16)" d="M25.467 6.533C22.939 4.004 19.576 2.612 16 2.612S9.061 4.004 6.533 6.533a13.3 13.3 0 0 0-3.916 9.821 13.295 13.295 0 0 0 3.916 9.113c2.528 2.529 5.891 3.921 9.467 3.921s6.939-1.392 9.467-3.921A13.289 13.289 0 0 0 29.388 16c0-3.576-1.393-6.938-3.921-9.467zM16 28.763c-5.913 0-10.899-4.041-12.342-9.507A12.72 12.72 0 0 1 3.237 16C3.237 8.963 8.963 3.237 16 3.237S28.763 8.963 28.763 16c0 1.125-.146 2.217-.421 3.256-1.443 5.465-6.429 9.507-12.342 9.507z"/><path fill="#5e2b16" style="fill:var(--color5,#5e2b16)" d="M11.909 11.237c-1.099 0-1.994.895-1.994 1.994s.895 1.994 1.994 1.994 1.994-.895 1.994-1.994-.894-1.994-1.994-1.994zm0 3.363c-.755 0-1.369-.614-1.369-1.369s.614-1.369 1.369-1.369 1.369.614 1.369 1.369c0 .754-.614 1.369-1.369 1.369zm8.182-3.363c-1.099 0-1.994.895-1.994 1.994s.894 1.994 1.994 1.994 1.994-.895 1.994-1.994a1.996 1.996 0 0 0-1.994-1.994zm0 3.363c-.754 0-1.369-.614-1.369-1.369s.614-1.369 1.369-1.369 1.369.614 1.369 1.369-.614 1.369-1.369 1.369zM16 20.589c2.547 0 4.908 1.192 6.162 3.11l-.523.342c-1.139-1.744-3.3-2.827-5.638-2.827s-4.499 1.083-5.638 2.827l-.523-.342c1.254-1.918 3.614-3.11 6.162-3.11zM11.301 10.052 8.909 12.41l-.439-.445 2.392-2.358.439.445zM21.139 9.607l2.392 2.358-.439.445-2.392-2.358.439-.445z"/></symbol><symbol id="film-icon" viewBox="0 0 32 32"><path fill="none" stroke="#fff" stroke-width="2.667" stroke-linecap="round" stroke-linejoin="round" style="stroke:var(--color3,#fff)" d="M26.427 2.667H5.574a2.907 2.907 0 0 0-2.907 2.907v20.853a2.907 2.907 0 0 0 2.907 2.907v0h20.853a2.907 2.907 0 0 0 2.907-2.907v0V5.574a2.907 2.907 0 0 0-2.907-2.907v0zm-17.094 0v26.667M22.667 2.667v26.667M2.667 16h26.667M2.667 9.333h6.667M2.667 22.667h6.667m13.333 0h6.667M22.667 9.333h6.667"/></symbol><symbol id="rate-us-icon" viewBox="0 0 32 32"><path fill="#3f6cba" style="fill:var(--color7,#3f6cba)" d="M19.986 15.769H1.962a1.785 1.785 0 0 1-1.785-1.785V5.98c0-.986.799-1.785 1.785-1.785h28.042c.986 0 1.785.799 1.785 1.785v8.004c0 .986-.799 1.785-1.785 1.785H19.987z"/><path fill="#ffcdac" style="fill:var(--color8,#ffcdac)" d="M22.119 19.046h-.09c-.349 0-.658.176-.842.443v-.354c0-.563-.458-1.021-1.021-1.021h-.09c-.349 0-.658.176-.842.443v-.083c0-.563-.458-1.021-1.021-1.021h-.091a1.02 1.02 0 0 0-.841.443v-2.562c0-.563-.458-1.021-1.021-1.021h-.09c-.563 0-1.021.458-1.021 1.021v5.061l-.732.555c-.416.315-.679.774-.742 1.292s.083 1.026.412 1.432l1.966 2.43v1.043a.71.71 0 0 0 .709.709h4.732a.71.71 0 0 0 .709-.709v-.997a3.989 3.989 0 0 0 .938-2.565v-3.52c0-.563-.458-1.021-1.021-1.021z"/><path fill="#ffbc53" style="fill:var(--color9,#ffbc53)" d="m16.384 6.692.667 1.352a.447.447 0 0 0 .338.245l1.492.217a.448.448 0 0 1 .248.765l-1.079 1.052a.448.448 0 0 0-.129.397l.255 1.486a.448.448 0 0 1-.651.472l-1.334-.701a.446.446 0 0 0-.417 0l-1.334.701a.448.448 0 0 1-.65-.472l.255-1.486a.448.448 0 0 0-.129-.397l-1.079-1.052a.449.449 0 0 1 .248-.765l1.492-.217a.45.45 0 0 0 .338-.245l.667-1.352a.448.448 0 0 1 .804 0zM6.737 6.692l.667 1.352a.447.447 0 0 0 .338.245l1.492.217a.448.448 0 0 1 .248.765l-1.079 1.052a.448.448 0 0 0-.129.397l.255 1.486a.448.448 0 0 1-.651.472l-1.334-.701a.446.446 0 0 0-.417 0l-1.334.701a.449.449 0 0 1-.651-.472l.255-1.486a.448.448 0 0 0-.129-.397L3.189 9.271a.449.449 0 0 1 .248-.765l1.492-.217a.45.45 0 0 0 .338-.245l.667-1.352a.448.448 0 0 1 .804 0zM26.031 6.692l.667 1.352a.447.447 0 0 0 .338.245l1.492.217a.448.448 0 0 1 .248.765l-1.079 1.052a.448.448 0 0 0-.129.397l.255 1.486a.448.448 0 0 1-.651.472l-1.334-.701a.446.446 0 0 0-.417 0l-1.334.701a.449.449 0 0 1-.651-.472l.255-1.486a.448.448 0 0 0-.129-.397l-1.079-1.052a.449.449 0 0 1 .248-.765l1.492-.217a.45.45 0 0 0 .338-.245l.667-1.352a.448.448 0 0 1 .804 0z"/></symbol><symbol id="search-icon" viewBox="0 0 32 32"><path fill="none" stroke="#fff" stroke-width="2.667" stroke-linecap="round" stroke-linejoin="round" style="stroke:var(--color3,#fff)" d="M14.667 25.333c5.891 0 10.667-4.776 10.667-10.667S20.558 3.999 14.667 3.999v0C8.776 3.999 4 8.775 4 14.666s4.776 10.667 10.667 10.667v0zM28 28l-5.8-5.8"/></symbol></defs></svg>