<?xml version="1.0" standalone="no"?>
<!DOCTYPE svg PUBLIC "-//W3C//DTD SVG 20010904//EN"
 "http://www.w3.org/TR/2001/REC-SVG-20010904/DTD/svg10.dtd">
<svg version="1.0" xmlns="http://www.w3.org/2000/svg"
 width="100.000000pt" height="100.000000pt" viewBox="0 0 100.000000 100.000000"
 preserveAspectRatio="xMidYMid meet">

<g transform="translate(0.000000,100.000000) scale(0.100000,-0.100000)"
fill="#000000" stroke="none">
<path d="M338 939 c-10 -5 -22 -29 -29 -52 -6 -23 -22 -54 -36 -68 -23 -25
-30 -26 -82 -22 -85 8 -91 -2 -91 -137 0 -80 4 -112 14 -123 11 -11 51 -14
189 -13 157 1 177 3 196 20 12 11 21 27 21 36 0 9 5 21 12 28 8 8 12 44 11 99
0 101 -9 113 -85 113 l-48 0 0 49 c0 40 -4 53 -22 65 -26 19 -27 19 -50 5z
m38 -90 l1 -64 67 3 c68 4 71 2 67 -40 -1 -10 3 -26 8 -37 8 -14 8 -22 0 -27
-6 -3 -9 -17 -6 -30 2 -13 -2 -29 -9 -35 -8 -6 -14 -19 -14 -28 0 -33 -22 -41
-109 -41 -48 0 -103 4 -123 9 -22 5 -40 5 -46 -1 -5 -5 -25 -8 -43 -6 l-34 3
0 105 0 105 38 3 c21 2 37 -1 37 -7 0 -6 8 -11 19 -11 26 0 97 81 106 121 9
43 14 51 28 46 7 -2 12 -29 13 -68z"/>
<path d="M160 595 c0 -8 7 -15 15 -15 8 0 15 7 15 15 0 8 -7 15 -15 15 -8 0
-15 -7 -15 -15z"/>
<path d="M490 497 c-42 -21 -63 -81 -63 -176 0 -99 9 -111 85 -111 l48 0 0
-50 c0 -41 4 -52 24 -65 35 -23 63 -5 77 49 12 47 71 116 83 97 11 -17 92 -13
110 5 22 21 23 225 2 246 -18 19 -330 23 -366 5z m222 -26 c22 -5 40 -5 46 1
5 5 25 8 43 6 l34 -3 0 -105 0 -105 -37 -3 c-22 -2 -38 1 -38 7 0 6 -8 11 -18
11 -28 0 -92 -72 -106 -121 -20 -68 -41 -58 -42 21 l-1 65 -57 -3 c-62 -4 -90
9 -81 39 4 10 1 27 -4 38 -8 14 -8 22 0 27 6 3 9 17 6 30 -2 13 2 29 9 35 8 6
14 19 14 28 0 33 22 41 110 41 47 0 102 -4 122 -9z"/>
<path d="M780 435 c0 -8 7 -15 15 -15 8 0 15 7 15 15 0 8 -7 15 -15 15 -8 0
-15 -7 -15 -15z"/>
</g>
</svg>
