<svg xmlns="http://www.w3.org/2000/svg" xmlns:xlink="http://www.w3.org/1999/xlink" version="1.1" width="256" height="256" viewBox="0 0 256 256" xml:space="preserve">

<defs>
</defs>
<g style="stroke: none; stroke-width: 0; stroke-dasharray: none; stroke-linecap: butt; stroke-linejoin: miter; stroke-miterlimit: 10; fill: none; fill-rule: nonzero; opacity: 1;" transform="translate(1.4065934065934016 1.4065934065934016) scale(2.81 2.81)" >
	<path d="M 56.398 44.393 H 5.083 C 2.276 44.393 0 42.117 0 39.31 V 16.523 c 0 -2.807 2.276 -5.083 5.083 -5.083 h 79.834 c 2.807 0 5.083 2.276 5.083 5.083 V 39.31 c 0 2.807 -2.276 5.083 -5.083 5.083 H 56.398" style="stroke: none; stroke-width: 1; stroke-dasharray: none; stroke-linecap: butt; stroke-linejoin: miter; stroke-miterlimit: 10; fill: rgb(63,108,186); fill-rule: nonzero; opacity: 1;" transform=" matrix(1 0 0 1 0 0) " stroke-linecap="round" />
	<path d="M 62.471 53.722 h -0.257 c -0.993 0 -1.872 0.5 -2.396 1.262 v -1.007 c 0 -1.603 -1.304 -2.907 -2.907 -2.907 h -0.257 c -0.993 0 -1.872 0.5 -2.396 1.262 v -0.237 c 0 -1.603 -1.304 -2.907 -2.907 -2.907 h -0.258 c -0.993 0 -1.871 0.5 -2.395 1.262 v -7.293 c 0 -1.603 -1.304 -2.907 -2.908 -2.907 h -0.257 c -1.603 0 -2.907 1.304 -2.907 2.907 v 14.408 l -2.083 1.581 c -1.183 0.898 -1.933 2.205 -2.111 3.679 c -0.179 1.474 0.237 2.922 1.172 4.078 l 5.596 6.918 v 2.969 c 0 1.113 0.906 2.018 2.018 2.018 H 60.69 c 1.113 0 2.018 -0.906 2.018 -2.018 v -2.837 c 1.722 -2.048 2.67 -4.637 2.67 -7.302 V 56.63 C 65.379 55.027 64.074 53.722 62.471 53.722 z" style="stroke: none; stroke-width: 1; stroke-dasharray: none; stroke-linecap: butt; stroke-linejoin: miter; stroke-miterlimit: 10; fill: rgb(255,205,172); fill-rule: nonzero; opacity: 1;" transform=" matrix(1 0 0 1 0 0) " stroke-linecap="round" />
	<path d="M 46.145 18.552 l 1.899 3.848 c 0.186 0.377 0.545 0.638 0.961 0.698 l 4.247 0.617 c 1.047 0.152 1.465 1.439 0.707 2.177 l -3.073 2.995 c -0.301 0.293 -0.438 0.716 -0.367 1.13 l 0.725 4.23 c 0.179 1.043 -0.916 1.838 -1.852 1.345 l -3.798 -1.997 c -0.372 -0.195 -0.816 -0.195 -1.188 0 l -3.798 1.997 c -0.936 0.492 -2.031 -0.303 -1.852 -1.345 l 0.725 -4.23 c 0.071 -0.414 -0.066 -0.836 -0.367 -1.13 l -3.073 -2.995 c -0.758 -0.738 -0.34 -2.025 0.707 -2.177 l 4.247 -0.617 c 0.416 -0.06 0.775 -0.322 0.961 -0.698 l 1.899 -3.848 C 44.324 17.603 45.676 17.603 46.145 18.552 z" style="stroke: none; stroke-width: 1; stroke-dasharray: none; stroke-linecap: butt; stroke-linejoin: miter; stroke-miterlimit: 10; fill: rgb(255,188,83); fill-rule: nonzero; opacity: 1;" transform=" matrix(1 0 0 1 0 0) " stroke-linecap="round" />
	<path d="M 18.68 18.552 L 20.58 22.4 c 0.186 0.377 0.545 0.638 0.961 0.698 l 4.247 0.617 c 1.047 0.152 1.465 1.439 0.707 2.177 l -3.073 2.995 c -0.301 0.293 -0.438 0.716 -0.367 1.13 l 0.725 4.23 c 0.179 1.043 -0.916 1.838 -1.852 1.345 l -3.798 -1.997 c -0.372 -0.195 -0.816 -0.195 -1.188 0 l -3.798 1.997 c -0.936 0.492 -2.031 -0.303 -1.852 -1.345 l 0.725 -4.23 c 0.071 -0.414 -0.066 -0.836 -0.367 -1.13 l -3.073 -2.995 c -0.758 -0.738 -0.34 -2.025 0.707 -2.177 l 4.247 -0.617 c 0.416 -0.06 0.775 -0.322 0.961 -0.698 l 1.899 -3.848 C 16.86 17.603 18.212 17.603 18.68 18.552 z" style="stroke: none; stroke-width: 1; stroke-dasharray: none; stroke-linecap: butt; stroke-linejoin: miter; stroke-miterlimit: 10; fill: rgb(255,188,83); fill-rule: nonzero; opacity: 1;" transform=" matrix(1 0 0 1 0 0) " stroke-linecap="round" />
	<path d="M 73.609 18.552 l 1.899 3.848 c 0.186 0.377 0.545 0.638 0.961 0.698 l 4.247 0.617 c 1.047 0.152 1.465 1.439 0.707 2.177 l -3.073 2.995 c -0.301 0.293 -0.438 0.716 -0.367 1.13 l 0.725 4.23 c 0.179 1.043 -0.916 1.838 -1.852 1.345 l -3.798 -1.997 c -0.372 -0.195 -0.816 -0.195 -1.188 0 l -3.798 1.997 c -0.936 0.492 -2.031 -0.303 -1.852 -1.345 l 0.725 -4.23 c 0.071 -0.414 -0.066 -0.836 -0.367 -1.13 l -3.073 -2.995 c -0.758 -0.738 -0.34 -2.025 0.707 -2.177 l 4.247 -0.617 c 0.416 -0.06 0.775 -0.322 0.961 -0.698 l 1.899 -3.848 C 71.788 17.603 73.14 17.603 73.609 18.552 z" style="stroke: none; stroke-width: 1; stroke-dasharray: none; stroke-linecap: butt; stroke-linejoin: miter; stroke-miterlimit: 10; fill: rgb(255,188,83); fill-rule: nonzero; opacity: 1;" transform=" matrix(1 0 0 1 0 0) " stroke-linecap="round" />
</g>
</svg>