<svg aria-hidden="true" style="position: absolute; width: 0; height: 0; overflow: hidden;" version="1.1" xmlns="http://www.w3.org/2000/svg" xmlns:xlink="http://www.w3.org/1999/xlink">
<defs>
<symbol id="comment-to-us" viewBox="0 0 32 32">
<path fill="#F6522E" style="fill: var(--color1, #F6522E)" d="M16 0c0.001 0 0.002 0 0.002 0 8.837 0 16 7.163 16 16s-7.163 16-16 16c-8.837 0-16-7.163-16-16 0-4.418 1.79-8.417 4.685-11.313v0c2.89-2.896 6.885-4.688 11.299-4.688 0.005 0 0.010 0 0.014 0h-0.001zM12.708 14.701c0.519 0.96 1.117 1.787 1.806 2.528l-0.007-0.007c0.804 0.844 1.746 1.548 2.791 2.077l0.058 0.027c0.040 0.021 0.087 0.033 0.137 0.033 0.039 0 0.076-0.007 0.11-0.021l-0.002 0.001c0.136-0.064 0.25-0.152 0.343-0.259l0.001-0.001c0.108-0.116 0.21-0.24 0.305-0.371l0.008-0.011c0.456-0.602 1.026-1.349 1.823-0.977l0.047 0.026 2.698 1.552c0.307 0.223 0.504 0.58 0.504 0.983 0 0.021-0 0.041-0.002 0.061l0-0.003c-0.020 0.492-0.163 0.946-0.398 1.338l0.007-0.013c-0.297 0.505-0.738 0.897-1.266 1.126l-0.018 0.007c-0.46 0.205-0.995 0.357-1.554 0.429l-0.029 0.003c-0.232 0.036-0.5 0.056-0.773 0.056-0.588 0-1.154-0.095-1.684-0.27l0.038 0.011c-0.928-0.313-1.732-0.711-2.472-1.199l0.039 0.024-0.063-0.039c-0.396-0.245-0.823-0.521-1.242-0.823-1.663-1.264-3.036-2.813-4.070-4.585l-0.040-0.074c-0.854-1.544-1.32-3.211-1.065-4.802 0.107-0.877 0.531-1.639 1.152-2.181l0.004-0.003c0.522-0.406 1.187-0.65 1.908-0.65 0.154 0 0.305 0.011 0.452 0.033l-0.017-0.002c0.113 0.011 0.208 0.077 0.26 0.17l0.001 0.002 1.711 2.893c0.139 0.159 0.224 0.368 0.224 0.597 0 0.136-0.030 0.264-0.083 0.38l0.002-0.006c-0.155 0.3-0.378 0.546-0.649 0.725l-0.007 0.004c-0.091 0.081-0.201 0.159-0.315 0.242-0.383 0.279-0.818 0.599-0.669 0.977v0zM25.766 6.234c-2.497-2.495-5.946-4.038-9.755-4.038-7.623 0-13.802 6.179-13.802 13.802s6.179 13.802 13.802 13.802c7.622 0 13.801-6.178 13.802-13.8v-0c0-0.005 0-0.011 0-0.017 0-3.809-1.547-7.256-4.047-9.748l-0-0z"></path>
</symbol>
<symbol id="phone" viewBox="0 0 32 32">
<path fill="#000" style="fill: var(--color2, #000)" d="M32 16c0 8.837-7.163 16-16 16s-16-7.163-16-16c0-8.837 7.163-16 16-16s16 7.163 16 16z"></path>
<path fill="#fff" style="fill: var(--color3, #fff)" d="M18.494 19.988c-0.266 0.169-0.6 0.194-0.888 0.065-0.571-0.317-1.613-1.073-3.058-2.518s-2.268-2.556-2.587-3.12c-0.129-0.288-0.104-0.622 0.065-0.888l0.83-1.454c0.298-0.516 0.365-0.842 0.041-1.344l-2.134-3.266c-0.607-0.96-0.917-0.917-1.44-0.677-2.722 1.238-3.785 2.99 0.077 9.089 1.042 1.644 4.224 5.124 6.938 6.886 5.813 3.775 7.726 2.64 8.861 0 0.24-0.533 0.346-0.842-0.569-1.44l-3.302-2.1c-0.502-0.322-0.746-0.406-1.265-0.106l-1.57 0.874z"></path>
</symbol>
<symbol id="rate3-icon" viewBox="0 0 32 32">
<path fill="#f3b81a" style="fill: var(--color4, #f3b81a)" d="M29.388 16c0 0.119-0.001 0.237-0.005 0.354-0.089 3.444-1.471 6.668-3.916 9.113-2.528 2.529-5.891 3.921-9.467 3.921s-6.939-1.392-9.467-3.921c-2.445-2.444-3.827-5.669-3.916-9.113-0.004-0.117-0.005-0.236-0.005-0.354 0-3.576 1.392-6.938 3.921-9.467s5.891-3.921 9.467-3.921 6.939 1.392 9.467 3.921c2.529 2.529 3.921 5.891 3.921 9.467z"></path>
<path fill="#5e2b16" style="fill: var(--color5, #5e2b16)" d="M25.467 6.533c-2.528-2.529-5.891-3.921-9.467-3.921s-6.939 1.392-9.467 3.921c-2.529 2.529-3.921 5.891-3.921 9.467 0 0.119 0.001 0.237 0.005 0.354 0.089 3.444 1.471 6.668 3.916 9.113 2.528 2.529 5.891 3.921 9.467 3.921s6.939-1.392 9.467-3.921c2.445-2.444 3.827-5.669 3.916-9.113 0.004-0.117 0.005-0.236 0.005-0.354 0-3.576-1.392-6.938-3.921-9.467zM16 28.763c-5.913 0-10.899-4.041-12.342-9.507-0.275-1.039-0.421-2.131-0.421-3.256 0-7.037 5.726-12.763 12.763-12.763s12.763 5.726 12.763 12.763c0 1.125-0.146 2.217-0.421 3.256-1.443 5.466-6.429 9.507-12.342 9.507z"></path>
<path fill="#5e2b16" style="fill: var(--color5, #5e2b16)" d="M11.909 11.237c-1.099 0-1.994 0.895-1.994 1.994s0.894 1.994 1.994 1.994 1.994-0.894 1.994-1.994-0.894-1.994-1.994-1.994zM11.909 14.6c-0.755 0-1.369-0.614-1.369-1.369s0.614-1.369 1.369-1.369 1.369 0.614 1.369 1.369c0 0.754-0.614 1.369-1.369 1.369zM20.091 11.237c-1.099 0-1.994 0.895-1.994 1.994s0.894 1.994 1.994 1.994c1.099 0 1.994-0.894 1.994-1.994s-0.894-1.994-1.994-1.994zM20.091 14.6c-0.754 0-1.369-0.614-1.369-1.369s0.614-1.369 1.369-1.369c0.755 0 1.369 0.614 1.369 1.369s-0.614 1.369-1.369 1.369z"></path>
<path fill="#5e2b16" style="fill: var(--color5, #5e2b16)" d="M16 24.041c-2.547 0-4.908-1.192-6.162-3.11l0.523-0.342c1.139 1.744 3.3 2.827 5.638 2.827s4.499-1.083 5.638-2.827l0.523 0.342c-1.254 1.918-3.614 3.11-6.162 3.11z"></path>
</symbol>
<symbol id="rate2-icon" viewBox="0 0 32 32">
<path fill="#f3b81a" style="fill: var(--color4, #f3b81a)" d="M29.388 16c0 0.119-0.001 0.237-0.005 0.354-0.089 3.444-1.471 6.668-3.916 9.113-2.528 2.529-5.891 3.921-9.467 3.921s-6.939-1.393-9.467-3.921c-2.445-2.445-3.827-5.669-3.916-9.113-0.004-0.117-0.005-0.236-0.005-0.354 0-3.576 1.392-6.938 3.921-9.467s5.891-3.921 9.467-3.921 6.939 1.392 9.467 3.921c2.529 2.529 3.921 5.891 3.921 9.467z"></path>
<path fill="#5e2b16" style="fill: var(--color5, #5e2b16)" d="M25.467 6.533c-2.528-2.529-5.891-3.921-9.467-3.921s-6.939 1.392-9.467 3.921c-2.529 2.529-3.921 5.891-3.921 9.467 0 0.119 0.001 0.237 0.005 0.354 0.089 3.444 1.471 6.668 3.916 9.113 2.528 2.529 5.891 3.921 9.467 3.921s6.939-1.393 9.467-3.921c2.445-2.444 3.827-5.669 3.916-9.113 0.004-0.117 0.005-0.236 0.005-0.354 0-3.576-1.392-6.938-3.921-9.467zM16 28.763c-5.913 0-10.899-4.041-12.342-9.507-0.275-1.040-0.421-2.131-0.421-3.256 0-7.037 5.726-12.763 12.763-12.763s12.763 5.726 12.763 12.763c0 1.125-0.146 2.217-0.421 3.256-1.443 5.465-6.429 9.507-12.342 9.507z"></path>
<path fill="#5e2b16" style="fill: var(--color5, #5e2b16)" d="M16 24.041c-2.547 0-4.908-1.192-6.162-3.11l0.523-0.342c1.139 1.744 3.3 2.827 5.638 2.827s4.499-1.083 5.638-2.827l0.523 0.342c-1.254 1.918-3.614 3.11-6.162 3.11z"></path>
<path fill="#5e2c17" style="fill: var(--color6, #5e2c17)" d="M20.090 13.231c1.090 0 1.977 0.887 1.977 1.977h-0.625c0-0.746-0.607-1.352-1.352-1.352s-1.352 0.607-1.352 1.352h-0.625c0-1.090 0.887-1.977 1.977-1.977z"></path>
<path fill="#5e2c17" style="fill: var(--color6, #5e2c17)" d="M11.909 13.231c1.090 0 1.977 0.887 1.977 1.977h-0.625c0-0.746-0.607-1.352-1.352-1.352s-1.352 0.607-1.352 1.352h-0.625c0-1.090 0.887-1.977 1.977-1.977z"></path>
</symbol>
<symbol id="rate4-icon" viewBox="0 0 32 32">
<path fill="#f3b81a" style="fill: var(--color4, #f3b81a)" d="M29.388 16c0 0.119-0.001 0.237-0.005 0.354-0.089 3.444-1.471 6.668-3.916 9.113-2.528 2.529-5.891 3.921-9.467 3.921s-6.939-1.392-9.467-3.921c-2.445-2.444-3.827-5.669-3.916-9.113-0.004-0.117-0.005-0.236-0.005-0.354 0-3.576 1.392-6.938 3.921-9.467s5.891-3.921 9.467-3.921 6.939 1.392 9.467 3.921c2.529 2.529 3.921 5.891 3.921 9.467z"></path>
<path fill="#5e2b16" style="fill: var(--color5, #5e2b16)" d="M25.467 6.533c-2.528-2.529-5.891-3.921-9.467-3.921s-6.939 1.392-9.467 3.921c-2.529 2.529-3.921 5.891-3.921 9.467 0 0.119 0.001 0.237 0.005 0.354 0.089 3.444 1.471 6.668 3.916 9.113 2.528 2.529 5.891 3.921 9.467 3.921s6.939-1.392 9.467-3.921c2.445-2.444 3.828-5.669 3.916-9.113 0.004-0.117 0.005-0.236 0.005-0.354 0-3.576-1.393-6.938-3.921-9.467zM16 28.763c-5.913 0-10.899-4.041-12.342-9.507-0.275-1.039-0.421-2.131-0.421-3.256 0-7.037 5.726-12.763 12.763-12.763s12.763 5.726 12.763 12.763c0 1.125-0.146 2.217-0.421 3.256-1.443 5.466-6.429 9.507-12.342 9.507z"></path>
<path fill="#5e2b16" style="fill: var(--color5, #5e2b16)" d="M11.909 11.237c-1.099 0-1.994 0.895-1.994 1.994s0.894 1.994 1.994 1.994 1.994-0.894 1.994-1.994-0.894-1.994-1.994-1.994zM11.909 14.6c-0.755 0-1.369-0.614-1.369-1.369s0.614-1.369 1.369-1.369 1.369 0.614 1.369 1.369c0 0.754-0.614 1.369-1.369 1.369zM20.091 11.237c-1.099 0-1.994 0.895-1.994 1.994s0.894 1.994 1.994 1.994 1.994-0.894 1.994-1.994c0-1.099-0.894-1.994-1.994-1.994zM20.091 14.6c-0.754 0-1.369-0.614-1.369-1.369s0.614-1.369 1.369-1.369c0.755 0 1.369 0.614 1.369 1.369s-0.614 1.369-1.369 1.369z"></path>
<path fill="#5e2b16" style="fill: var(--color5, #5e2b16)" d="M16.098 26.209c-3.968 0-7.196-3.228-7.196-7.196v-0.313h14.391v0.313c0 3.968-3.228 7.196-7.196 7.196zM9.534 19.326c0.164 3.478 3.045 6.258 6.563 6.258s6.4-2.78 6.563-6.258h-13.127z"></path>
</symbol>
<symbol id="rate5-icon" viewBox="0 0 32 32">
<path fill="#f3b81a" style="fill: var(--color4, #f3b81a)" d="M29.388 16c0 0.119-0.001 0.237-0.005 0.354-0.089 3.444-1.471 6.668-3.916 9.113-2.528 2.529-5.891 3.921-9.467 3.921s-6.939-1.392-9.467-3.921c-2.445-2.445-3.827-5.669-3.916-9.113-0.004-0.117-0.005-0.236-0.005-0.354 0-3.576 1.392-6.938 3.921-9.467s5.891-3.921 9.467-3.921 6.939 1.392 9.467 3.921c2.529 2.529 3.921 5.891 3.921 9.467z"></path>
<path fill="#5e2b16" style="fill: var(--color5, #5e2b16)" d="M25.467 6.533c-2.528-2.529-5.891-3.921-9.467-3.921s-6.939 1.392-9.467 3.921c-2.529 2.529-3.921 5.891-3.921 9.467 0 0.119 0.001 0.237 0.005 0.354 0.089 3.444 1.471 6.668 3.916 9.113 2.528 2.529 5.891 3.921 9.467 3.921s6.939-1.392 9.467-3.921c2.445-2.444 3.827-5.669 3.916-9.113 0.004-0.117 0.005-0.236 0.005-0.354 0-3.576-1.392-6.938-3.921-9.467zM16 28.763c-5.913 0-10.899-4.041-12.342-9.507-0.275-1.040-0.421-2.131-0.421-3.256 0-7.037 5.726-12.763 12.763-12.763s12.763 5.726 12.763 12.763c0 1.125-0.146 2.217-0.421 3.256-1.443 5.465-6.429 9.507-12.342 9.507z"></path>
<path fill="#5e2b16" style="fill: var(--color5, #5e2b16)" d="M16 24.041c-2.547 0-4.908-1.192-6.162-3.11l0.523-0.342c1.139 1.744 3.3 2.827 5.638 2.827s4.499-1.083 5.638-2.827l0.523 0.342c-1.254 1.918-3.614 3.11-6.162 3.11z"></path>
<path fill="#5e2b16" style="fill: var(--color5, #5e2b16)" d="M13.592 15.464l-1.683-0.885-1.683 0.885 0.321-1.874-1.361-1.327 1.881-0.273 0.841-1.705 0.841 1.705 1.881 0.273-1.361 1.327 0.321 1.874zM11.909 13.873l0.853 0.448-0.163-0.95 0.69-0.672-0.953-0.139-0.426-0.864-0.426 0.864-0.953 0.139 0.69 0.672-0.163 0.95 0.852-0.448zM18.408 15.464l0.322-1.874-1.361-1.327 1.881-0.273 0.841-1.705 0.841 1.705 1.881 0.273-1.361 1.327 0.322 1.874-1.683-0.885-1.683 0.885zM20.090 13.873l0.853 0.448-0.163-0.95 0.69-0.672-0.953-0.139-0.426-0.864-0.426 0.864-0.953 0.139 0.69 0.672-0.163 0.95 0.852-0.448z"></path>
</symbol>
<symbol id="rate1-icon" viewBox="0 0 32 32">
<path fill="#f3b81a" style="fill: var(--color4, #f3b81a)" d="M29.388 16c0 0.119-0.001 0.237-0.005 0.354-0.089 3.444-1.471 6.668-3.916 9.113-2.528 2.529-5.891 3.921-9.467 3.921s-6.939-1.392-9.467-3.921c-2.445-2.444-3.827-5.669-3.916-9.113-0.004-0.117-0.005-0.236-0.005-0.354 0-3.576 1.392-6.938 3.921-9.467s5.891-3.921 9.467-3.921 6.939 1.392 9.467 3.921c2.529 2.529 3.921 5.891 3.921 9.467z"></path>
<path fill="#5e2b16" style="fill: var(--color5, #5e2b16)" d="M25.467 6.533c-2.528-2.529-5.891-3.921-9.467-3.921s-6.939 1.392-9.467 3.921c-2.529 2.529-3.921 5.891-3.921 9.467 0 0.119 0.001 0.237 0.005 0.354 0.089 3.444 1.471 6.668 3.916 9.113 2.528 2.529 5.891 3.921 9.467 3.921s6.939-1.392 9.467-3.921c2.445-2.444 3.828-5.669 3.916-9.113 0.004-0.117 0.005-0.236 0.005-0.354 0-3.576-1.393-6.938-3.921-9.467zM16 28.763c-5.913 0-10.899-4.041-12.342-9.507-0.275-1.040-0.421-2.131-0.421-3.256 0-7.037 5.726-12.763 12.763-12.763s12.763 5.726 12.763 12.763c0 1.125-0.146 2.217-0.421 3.256-1.443 5.465-6.429 9.507-12.342 9.507z"></path>
<path fill="#5e2b16" style="fill: var(--color5, #5e2b16)" d="M11.909 11.237c-1.099 0-1.994 0.895-1.994 1.994s0.895 1.994 1.994 1.994 1.994-0.895 1.994-1.994-0.894-1.994-1.994-1.994zM11.909 14.6c-0.755 0-1.369-0.614-1.369-1.369s0.614-1.369 1.369-1.369 1.369 0.614 1.369 1.369c0 0.754-0.614 1.369-1.369 1.369zM20.091 11.237c-1.099 0-1.994 0.895-1.994 1.994s0.894 1.994 1.994 1.994 1.994-0.895 1.994-1.994c0-1.099-0.894-1.994-1.994-1.994zM20.091 14.6c-0.754 0-1.369-0.614-1.369-1.369s0.614-1.369 1.369-1.369c0.755 0 1.369 0.614 1.369 1.369s-0.614 1.369-1.369 1.369z"></path>
<path fill="#5e2b16" style="fill: var(--color5, #5e2b16)" d="M16 20.589c2.547 0 4.908 1.192 6.162 3.11l-0.523 0.342c-1.139-1.744-3.3-2.827-5.638-2.827s-4.499 1.083-5.638 2.827l-0.523-0.342c1.254-1.918 3.614-3.11 6.162-3.11z"></path>
<path fill="#5e2b16" style="fill: var(--color5, #5e2b16)" d="M11.301 10.052l-2.392 2.358-0.439-0.445 2.392-2.358 0.439 0.445z"></path>
<path fill="#5e2b16" style="fill: var(--color5, #5e2b16)" d="M21.139 9.607l2.392 2.358-0.439 0.445-2.392-2.358 0.439-0.445z"></path>
</symbol>
<symbol id="film-icon" viewBox="0 0 32 32">
<path fill="none" stroke="#fff" stroke-width="2.6667" stroke-miterlimit="4" stroke-linecap="round" stroke-linejoin="round" style="stroke: var(--color3, #fff)" d="M26.427 2.667h-20.853c-1.605 0-2.907 1.301-2.907 2.907v0 20.853c0 1.605 1.301 2.907 2.907 2.907v0h20.853c1.605 0 2.907-1.301 2.907-2.907v0-20.853c0-1.605-1.301-2.907-2.907-2.907v0zM9.333 2.667v26.667M22.667 2.667v26.667M2.667 16h26.667M2.667 9.333h6.667M2.667 22.667h6.667M22.667 22.667h6.667M22.667 9.333h6.667"></path>
</symbol>
<symbol id="rate-us-icon" viewBox="0 0 32 32">
<path fill="#3f6cba" style="fill: var(--color7, #3f6cba)" d="M19.986 15.769h-18.024c-0.986 0-1.785-0.799-1.785-1.785v-8.004c0-0.986 0.799-1.785 1.785-1.785h28.042c0.986 0 1.785 0.799 1.785 1.785v8.004c0 0.986-0.799 1.785-1.785 1.785h-10.017z"></path>
<path fill="#ffcdac" style="fill: var(--color8, #ffcdac)" d="M22.119 19.046h-0.090c-0.349 0-0.658 0.176-0.842 0.443v-0.354c0-0.563-0.458-1.021-1.021-1.021h-0.090c-0.349 0-0.658 0.176-0.842 0.443v-0.083c0-0.563-0.458-1.021-1.021-1.021h-0.091c-0.349 0-0.657 0.176-0.841 0.443v-2.562c0-0.563-0.458-1.021-1.021-1.021h-0.090c-0.563 0-1.021 0.458-1.021 1.021v5.061l-0.732 0.555c-0.416 0.315-0.679 0.774-0.742 1.292s0.083 1.026 0.412 1.432l1.966 2.43v1.043c0 0.391 0.318 0.709 0.709 0.709h4.732c0.391 0 0.709-0.318 0.709-0.709v-0.997c0.605-0.719 0.938-1.629 0.938-2.565v-3.52c0-0.563-0.458-1.021-1.021-1.021z"></path>
<path fill="#ffbc53" style="fill: var(--color9, #ffbc53)" d="M16.384 6.692l0.667 1.352c0.065 0.132 0.191 0.224 0.338 0.245l1.492 0.217c0.368 0.053 0.515 0.505 0.248 0.765l-1.079 1.052c-0.106 0.103-0.154 0.252-0.129 0.397l0.255 1.486c0.063 0.366-0.322 0.646-0.651 0.472l-1.334-0.701c-0.131-0.069-0.287-0.069-0.417 0l-1.334 0.701c-0.329 0.173-0.713-0.106-0.65-0.472l0.255-1.486c0.025-0.145-0.023-0.294-0.129-0.397l-1.079-1.052c-0.266-0.259-0.119-0.711 0.248-0.765l1.492-0.217c0.146-0.021 0.272-0.113 0.338-0.245l0.667-1.352c0.165-0.333 0.64-0.333 0.804 0z"></path>
<path fill="#ffbc53" style="fill: var(--color9, #ffbc53)" d="M6.737 6.692l0.667 1.352c0.065 0.132 0.191 0.224 0.338 0.245l1.492 0.217c0.368 0.053 0.515 0.505 0.248 0.765l-1.079 1.052c-0.106 0.103-0.154 0.252-0.129 0.397l0.255 1.486c0.063 0.366-0.322 0.646-0.651 0.472l-1.334-0.701c-0.131-0.069-0.287-0.069-0.417 0l-1.334 0.701c-0.329 0.173-0.713-0.106-0.651-0.472l0.255-1.486c0.025-0.145-0.023-0.294-0.129-0.397l-1.079-1.052c-0.266-0.259-0.119-0.711 0.248-0.765l1.492-0.217c0.146-0.021 0.272-0.113 0.338-0.245l0.667-1.352c0.165-0.333 0.64-0.333 0.804 0z"></path>
<path fill="#ffbc53" style="fill: var(--color9, #ffbc53)" d="M26.031 6.692l0.667 1.352c0.065 0.132 0.191 0.224 0.338 0.245l1.492 0.217c0.368 0.053 0.515 0.505 0.248 0.765l-1.079 1.052c-0.106 0.103-0.154 0.252-0.129 0.397l0.255 1.486c0.063 0.366-0.322 0.646-0.651 0.472l-1.334-0.701c-0.131-0.069-0.287-0.069-0.417 0l-1.334 0.701c-0.329 0.173-0.713-0.106-0.651-0.472l0.255-1.486c0.025-0.145-0.023-0.294-0.129-0.397l-1.079-1.052c-0.266-0.259-0.119-0.711 0.248-0.765l1.492-0.217c0.146-0.021 0.272-0.113 0.338-0.245l0.667-1.352c0.165-0.333 0.64-0.333 0.804 0z"></path>
</symbol>
<symbol id="search-icon" viewBox="0 0 32 32">
<path fill="none" stroke="#fff" stroke-width="2.6667" stroke-miterlimit="4" stroke-linecap="round" stroke-linejoin="round" style="stroke: var(--color3, #fff)" d="M14.667 25.333c5.891 0 10.667-4.776 10.667-10.667s-4.776-10.667-10.667-10.667v0c-5.891 0-10.667 4.776-10.667 10.667s4.776 10.667 10.667 10.667v0zM28 28l-5.8-5.8"></path>
</symbol>
</defs>
</svg>
